<?xml version="1.0" standalone="no"?>
<!DOCTYPE svg PUBLIC "-//W3C//DTD SVG 20010904//EN"
 "http://www.w3.org/TR/2001/REC-SVG-20010904/DTD/svg10.dtd">
<svg version="1.0" xmlns="http://www.w3.org/2000/svg"
 width="36.000000pt" height="43.000000pt" viewBox="0 0 36.000000 43.000000"
 preserveAspectRatio="xMidYMid meet">

<g transform="translate(0.000000,43.000000) scale(0.100000,-0.100000)"
fill="#000000" stroke="none">
<path d="M224 374 c-14 -11 -15 -14 -3 -11 23 7 35 -3 53 -47 16 -37 15 -40
-4 -53 -23 -17 -25 -50 -5 -77 20 -26 19 -90 -1 -110 -15 -15 -31 -21 -84 -29
-17 -3 -12 -5 13 -6 43 -1 70 10 110 47 34 32 36 75 5 133 l-22 42 23 18 c21
17 21 20 7 53 -13 31 -41 56 -63 56 -5 0 -18 -7 -29 -16z"/>
<path d="M62 373 c-16 -6 -42 -56 -42 -80 1 -11 6 -7 14 13 22 50 72 59 111
19 41 -40 30 -120 -24 -169 l-21 -19 35 -18 c40 -22 57 -17 81 19 9 15 11 21
3 14 -17 -15 -29 -15 -52 2 -18 14 -17 16 9 56 20 30 29 56 30 91 1 27 -1 47
-3 45 -3 -3 -14 4 -26 15 -20 18 -83 25 -115 12z"/>
<path d="M44 253 c12 -14 29 -22 45 -22 l26 2 -25 4 c-14 3 -34 12 -45 21 -20
17 -20 17 -1 -5z"/>
</g>
</svg>
